<svg width="210" height="77" viewBox="0 0 210 77" version="1.1" xmlns="http://www.w3.org/2000/svg" xmlns:xlink="http://www.w3.org/1999/xlink">
<g id="Canvas" fill="none">
<g id="A6" clip-path="url(#clip0)">
<g id="BuHuVa">
<path d="M 13.104 45.288C 12.432 45.288 11.696 45.272 10.896 45.24C 10.128 45.208 9.344 45.16 8.544 45.096C 7.776 45.032 7.008 44.952 6.24 44.856C 5.472 44.76 4.768 44.632 4.128 44.472L 4.128 12.216C 4.768 12.056 5.472 11.928 6.24 11.832C 7.008 11.736 7.776 11.656 8.544 11.592C 9.344 11.528 10.128 11.48 10.896 11.448C 11.664 11.416 12.384 11.4 13.056 11.4C 14.976 11.4 16.768 11.544 18.432 11.832C 20.128 12.12 21.584 12.616 22.8 13.32C 24.048 13.992 25.024 14.888 25.728 16.008C 26.432 17.128 26.784 18.504 26.784 20.136C 26.784 21.96 26.352 23.464 25.488 24.648C 24.624 25.8 23.472 26.664 22.032 27.24C 23.984 27.816 25.536 28.728 26.688 29.976C 27.84 31.224 28.416 32.984 28.416 35.256C 28.416 38.584 27.184 41.096 24.72 42.792C 22.288 44.456 18.416 45.288 13.104 45.288ZM 8.736 29.496L 8.736 41.208C 9.088 41.24 9.504 41.272 9.984 41.304C 10.4 41.336 10.88 41.368 11.424 41.4C 12 41.4 12.656 41.4 13.392 41.4C 14.768 41.4 16.064 41.32 17.28 41.16C 18.528 40.968 19.616 40.648 20.544 40.2C 21.472 39.752 22.208 39.128 22.752 38.328C 23.328 37.528 23.616 36.52 23.616 35.304C 23.616 34.216 23.408 33.304 22.992 32.568C 22.576 31.8 21.968 31.192 21.168 30.744C 20.4 30.296 19.472 29.976 18.384 29.784C 17.296 29.592 16.08 29.496 14.736 29.496L 8.736 29.496ZM 8.736 25.752L 13.632 25.752C 14.784 25.752 15.872 25.672 16.896 25.512C 17.92 25.352 18.8 25.064 19.536 24.648C 20.304 24.232 20.896 23.688 21.312 23.016C 21.76 22.344 21.984 21.496 21.984 20.472C 21.984 19.512 21.76 18.712 21.312 18.072C 20.864 17.4 20.24 16.872 19.44 16.488C 18.672 16.072 17.76 15.768 16.704 15.576C 15.648 15.384 14.528 15.288 13.344 15.288C 12.16 15.288 11.232 15.304 10.56 15.336C 9.888 15.368 9.28 15.416 8.736 15.48L 8.736 25.752ZM 54.5557 44.28C 53.5318 44.536 52.1718 44.808 50.4758 45.096C 48.8117 45.384 46.8757 45.528 44.6677 45.528C 42.7477 45.528 41.1318 45.256 39.8198 44.712C 38.5078 44.136 37.4517 43.336 36.6517 42.312C 35.8518 41.288 35.2758 40.088 34.9238 38.712C 34.5718 37.304 34.3958 35.752 34.3958 34.056L 34.3958 20.04L 38.8597 20.04L 38.8597 33.096C 38.8597 36.136 39.3397 38.312 40.2997 39.624C 41.2597 40.936 42.8758 41.592 45.1478 41.592C 45.6277 41.592 46.1237 41.576 46.6357 41.544C 47.1477 41.512 47.6277 41.48 48.0757 41.448C 48.5237 41.384 48.9237 41.336 49.2758 41.304C 49.6597 41.24 49.9317 41.176 50.0917 41.112L 50.0917 20.04L 54.5557 20.04L 54.5557 44.28ZM 83.4623 11.736L 88.1183 11.736L 88.1183 45L 83.4623 45L 83.4623 29.64L 67.1902 29.64L 67.1902 45L 62.5343 45L 62.5343 11.736L 67.1902 11.736L 67.1902 25.608L 83.4623 25.608L 83.4623 11.736ZM 115.962 44.28C 114.938 44.536 113.578 44.808 111.882 45.096C 110.218 45.384 108.282 45.528 106.074 45.528C 104.154 45.528 102.538 45.256 101.226 44.712C 99.914 44.136 98.858 43.336 98.058 42.312C 97.258 41.288 96.682 40.088 96.33 38.712C 95.978 37.304 95.802 35.752 95.802 34.056L 95.802 20.04L 100.266 20.04L 100.266 33.096C 100.266 36.136 100.746 38.312 101.706 39.624C 102.666 40.936 104.282 41.592 106.554 41.592C 107.034 41.592 107.53 41.576 108.042 41.544C 108.554 41.512 109.034 41.48 109.482 41.448C 109.93 41.384 110.33 41.336 110.682 41.304C 111.066 41.24 111.338 41.176 111.498 41.112L 111.498 20.04L 115.962 20.04L 115.962 44.28ZM 150.821 11.736C 149.604 15.256 148.436 18.52 147.317 21.528C 146.228 24.504 145.156 27.336 144.1 30.024C 143.044 32.712 141.988 35.288 140.932 37.752C 139.908 40.184 138.852 42.6 137.765 45L 133.396 45C 132.308 42.6 131.237 40.184 130.181 37.752C 129.157 35.288 128.101 32.712 127.013 30.024C 125.957 27.336 124.868 24.504 123.749 21.528C 122.628 18.52 121.476 15.256 120.292 11.736L 125.428 11.736C 127.157 16.792 128.853 21.656 130.517 26.328C 132.181 31 133.893 35.384 135.653 39.48C 137.412 35.416 139.124 31.048 140.789 26.376C 142.452 21.672 144.132 16.792 145.828 11.736L 150.821 11.736ZM 162.382 41.784C 163.438 41.784 164.366 41.768 165.166 41.736C 165.998 41.672 166.686 41.576 167.23 41.448L 167.23 34.008C 166.91 33.848 166.382 33.72 165.646 33.624C 164.942 33.496 164.078 33.432 163.054 33.432C 162.382 33.432 161.662 33.48 160.894 33.576C 160.158 33.672 159.47 33.88 158.83 34.2C 158.222 34.488 157.71 34.904 157.294 35.448C 156.878 35.96 156.67 36.648 156.67 37.512C 156.67 39.112 157.182 40.232 158.206 40.872C 159.23 41.48 160.622 41.784 162.382 41.784ZM 161.998 19.416C 163.79 19.416 165.294 19.656 166.51 20.136C 167.758 20.584 168.75 21.24 169.486 22.104C 170.254 22.936 170.798 23.944 171.118 25.128C 171.438 26.28 171.598 27.56 171.598 28.968L 171.598 44.568C 171.214 44.632 170.67 44.728 169.966 44.856C 169.294 44.952 168.526 45.048 167.662 45.144C 166.798 45.24 165.854 45.32 164.83 45.384C 163.838 45.48 162.846 45.528 161.854 45.528C 160.446 45.528 159.15 45.384 157.966 45.096C 156.782 44.808 155.758 44.36 154.894 43.752C 154.03 43.112 153.358 42.28 152.878 41.256C 152.398 40.232 152.158 39 152.158 37.56C 152.158 36.184 152.43 35 152.974 34.008C 153.55 33.016 154.318 32.216 155.278 31.608C 156.238 31 157.358 30.552 158.638 30.264C 159.918 29.976 161.262 29.832 162.67 29.832C 163.118 29.832 163.582 29.864 164.062 29.928C 164.542 29.96 164.99 30.024 165.406 30.12C 165.854 30.184 166.238 30.248 166.558 30.312C 166.878 30.376 167.102 30.424 167.23 30.456L 167.23 29.208C 167.23 28.472 167.15 27.752 166.99 27.048C 166.83 26.312 166.542 25.672 166.126 25.128C 165.71 24.552 165.134 24.104 164.398 23.784C 163.694 23.432 162.766 23.256 161.614 23.256C 160.142 23.256 158.846 23.368 157.726 23.592C 156.638 23.784 155.822 23.992 155.278 24.216L 154.75 20.52C 155.326 20.264 156.286 20.024 157.63 19.8C 158.974 19.544 160.43 19.416 161.998 19.416Z" transform="translate(-3 11)" fill="#3D3D3D"/>
</g>
<g id="Arrow">
<path d="M 177.063 1.06066C 177.649 0.474874 177.649 -0.474874 177.063 -1.06066L 167.518 -10.6066C 166.932 -11.1924 165.982 -11.1924 165.396 -10.6066C 164.81 -10.0208 164.81 -9.07107 165.396 -8.48528L 173.882 0L 165.396 8.48528C 164.81 9.07107 164.81 10.0208 165.396 10.6066C 165.982 11.1924 166.932 11.1924 167.518 10.6066L 177.063 1.06066ZM 0 1.5L 176.003 1.5L 176.003 -1.5L 0 -1.5L 0 1.5Z" transform="translate(0 68) scale(1)" fill="#F2994A"/>
</g>
<g id="Arrow_2">
<path d="M 177.063 1.06066C 177.649 0.474874 177.649 -0.474874 177.063 -1.06066L 167.518 -10.6066C 166.932 -11.1924 165.982 -11.1924 165.396 -10.6066C 164.81 -10.0208 164.81 -9.07107 165.396 -8.48528L 173.882 0L 165.396 8.48528C 164.81 9.07107 164.81 10.0208 165.396 10.6066C 165.982 11.1924 166.932 11.1924 167.518 10.6066L 177.063 1.06066ZM 0 1.5L 176.003 1.5L 176.003 -1.5L 0 -1.5L 0 1.5Z" transform="translate(0 11) scale(1)" fill="#F2994A"/>
</g>
<g id="Line">
<line y1="-1.5" x2="47.4236" y2="-1.5" stroke-width="3" transform="matrix(0.738029 -0.674769 0.674769 0.738029 175 71)" stroke="#3D3D3D"/>
</g>
<g id="Line_2">
<line y1="-1.5" x2="45.3431" y2="-1.5" stroke-width="3" transform="matrix(0.749838 0.661622 -0.661622 0.749838 173 10)" stroke="#3D3D3D"/>
</g>
</g>
</g>
<defs>

<clipPath id="clip0">
<rect width="267" height="265" fill="white" transform="translate(-35 -170)"/>
</clipPath>

</defs>
</svg>

